<svg width="77" height="77" viewBox="0 0 77 77" fill="none" xmlns="http://www.w3.org/2000/svg">
<path d="M75.9529 26.2882L69.9976 20.3336C68.584 18.9201 66.2981 18.9201 64.8995 20.3336L28.8818 56.3469L12.1287 39.5808C10.7151 38.1673 8.42919 38.1673 7.03059 39.5808L1.06023 45.5504C-0.353409 46.9639 -0.353409 49.2495 1.06023 50.6629L26.3252 75.9399C27.7389 77.3534 30.0248 77.3534 31.4234 75.9399L75.9379 31.4007C77.3515 29.9722 77.3515 27.6866 75.9529 26.2882ZM27.1824 42.2273C28.1148 43.1746 29.6488 43.1746 30.5812 42.2273L61.8617 10.9205C62.7941 9.9732 62.7941 8.45448 61.8617 7.52219L55.0642 0.710492C54.1318 -0.236831 52.5978 -0.236831 51.6654 0.710492L28.8818 23.4913L20.5504 15.1459C19.618 14.1986 18.084 14.1986 17.1516 15.1459L10.3391 21.9576C9.4067 22.9049 9.4067 24.4236 10.3391 25.3559L27.1824 42.2273Z" fill="#0A99FE"/>
</svg>
